<svg xmlns="http://www.w3.org/2000/svg" width="25" height="25" viewBox="0 0 50 50"><path fill="#E44F26" d="M8.494 43.89L4.75 2.103h41.16l-3.75 41.78-16.856 4.647"/><path fill="#F1662A" d="M25.33 44.977l13.62-3.755L42.152 5.52H25.33"/><path fill="#EBEBEB" d="M25.33 21.018h-6.82l-.47-5.248h7.29v-5.125H12.407l.123 1.375 1.267 14.122H25.33M25.33 34.327l-.023.006-5.74-1.54-.367-4.087h-5.173l.723 8.046 10.555 2.914.024-.006"/><path fill="#FFF" d="M25.312 21.018v5.124h6.345l-.6 6.647-5.745 1.54v5.333l10.563-2.91.078-.866 1.21-13.493.126-1.376H35.9M25.312 10.645V15.77h12.445l.103-1.152.235-2.598.124-1.375"/></svg>